<?xml version="1.0" encoding="UTF-8"?>
<!DOCTYPE svg PUBLIC "-//W3C//DTD SVG 1.1//EN" "http://www.w3.org/Graphics/SVG/1.1/DTD/svg11.dtd">
<!-- Creator: CorelDRAW -->
<svg xmlns="http://www.w3.org/2000/svg" xml:space="preserve" width="210mm" height="297mm" version="1.1" style="shape-rendering:geometricPrecision; text-rendering:geometricPrecision; image-rendering:optimizeQuality; fill-rule:evenodd; clip-rule:evenodd"
viewBox="0 0 21000 29700"
 xmlns:xlink="http://www.w3.org/1999/xlink"
 xmlns:xodm="http://www.corel.com/coreldraw/odm/2003">
 <defs>
  <style type="text/css">
   <![CDATA[
    .fil3 {fill:none}
    .fil2 {fill:#FFF200}
    .fil0 {fill:#FFCB1B}
    .fil4 {fill:#27A44C}
    .fil5 {fill:#08823F}
    .fil1 {fill:#006332}
    .fil6 {fill:#006332;fill-rule:nonzero}
   ]]>
  </style>
 </defs>
 <g id="Layer_x0020_1">
  <metadata id="CorelCorpID_0Corel-Layer"/>
  <path class="fil0" d="M3964.14 6958.29c201.72,-442.22 36.51,-832.4 -165.66,-1265.66l-2.52 -5.4c27.63,420.58 -71.93,589.91 -220.75,926.14 -148.82,336.23 -593.01,582.7 -721.66,905.74 -128.66,323.04 -15.16,785.68 116.1,926.91 8.93,-231.25 75.68,-415.02 171.48,-569.66 244.29,-394.3 677.52,-599.1 823.01,-918.07z"/>
  <path class="fil1" d="M3223.76 7898.95c93.08,152.32 200.74,487.12 279.76,501.44 465,84.28 835.95,-128.78 1072.55,-588.1 15.84,609.66 -500.04,883.84 -825.82,915.39 -325.78,31.55 -564.28,-92.68 -720.27,-209.44 59.65,-237.18 140.65,-487.02 193.78,-619.29z"/>
  <path class="fil2" d="M3795.96 5687.23c-0.76,7.51 -1.69,14.91 -2.58,22.34 -85.49,713.71 -745.07,1042.2 -1030.43,1639.67 -212.17,444.24 -10.23,937.9 206.7,1096.78 -70.38,-212.68 -164.32,-488.31 -35.66,-811.35 128.65,-323.05 616.71,-685.07 765.53,-1021.3 148.82,-336.23 141.08,-541.6 96.44,-926.14z"/>
  <path class="fil3" d="M4000.68 8421.67c-253.68,79.01 -556.96,-20.46 -742.2,-90.27 185.24,69.81 488.52,169.28 742.2,90.27 253.68,-79.01 475,-279.87 575.39,-609.38 -100.39,329.51 -321.71,530.37 -575.39,609.38z"/>
  <path class="fil4" d="M3223.76 7898.95l3.15 3.13c146.59,146.57 283.88,232.1 439.33,269.8 65.53,15.89 134.28,23.28 208.33,23.17 250.96,-0.37 510.16,-131.19 701.5,-382.76 -100.39,329.51 -321.71,530.37 -575.39,609.38 -253.68,79.01 -556.96,-20.46 -742.2,-90.27 17.82,-168.11 1.11,-307.68 -34.72,-432.45z"/>
  <path class="fil5" d="M3029.98 8518.24c2.45,-229.46 24.36,-411.44 193.78,-619.29 35.83,124.77 52.54,264.34 34.72,432.45 -58.45,72.29 -135.94,133.82 -228.5,186.84z"/>
  <path class="fil1" d="M4122.12 6648.25c-18.95,336.69 -243.01,707.17 -382.86,791.24 104.36,103.83 181.26,159.58 219.38,274.44 21.24,64.02 31.67,126.6 28.93,195.52 -2.16,54.72 -12.63,113.42 -32.59,180.02 849.4,-263.13 303.71,-1084.21 167.14,-1441.22z"/>
  <path class="fil4" d="M4119.51 6645.07c30.35,164 33.03,334.32 0,512.76 -115.22,112.11 -240.65,208.07 -380.25,281.66 226.1,-265.74 342.04,-526.04 378.6,-782.43 0.57,-4 1.12,-7.99 1.65,-11.99z"/>
  <path class="fil5" d="M4560.47 7648.92c27.75,-329.33 -153.45,-655.2 -438.35,-1000.67l-2.61 -3.18c30.35,164 33.03,334.32 0,512.76 131.08,355.21 65.14,663.09 -164.53,931.64 103.6,13.24 577.65,-110.21 605.49,-440.55z"/>
  <path class="fil6" d="M3147.68 10071.84c-50.18,0 -100.14,-1.54 -149.87,-4.62 -49.74,-3.09 -101.46,-10.35 -155.16,-21.79l0 -887.35c42.26,-7.92 88.47,-13.87 138.65,-17.83 50.18,-3.96 96.83,-5.94 139.97,-5.94 58.1,0 111.58,4.18 160.44,12.55 48.85,8.36 90.89,22.66 126.1,42.91 35.21,20.25 62.72,46.88 82.53,79.89 19.8,33.01 29.71,73.72 29.71,122.14 0,73.07 -35.21,130.73 -105.64,172.98 58.1,22.01 97.71,51.94 118.84,89.79 21.13,37.86 31.69,80.55 31.69,128.09 0,95.95 -34.99,168.14 -104.97,216.55 -69.99,48.42 -174.08,72.63 -312.29,72.63zm-104.32 -410.67l0 236.37c14.97,1.76 31.25,3.08 48.86,3.96 17.61,0.88 36.97,1.32 58.1,1.32 61.62,0 111.36,-8.8 149.21,-26.41 37.85,-17.61 56.78,-50.18 56.78,-97.71 0,-42.26 -15.85,-72.41 -47.54,-90.46 -31.69,-18.04 -77.02,-27.07 -136,-27.07l-129.41 0zm0 -157.13l100.36 0c63.38,0 108.71,-8.14 136,-24.43 27.29,-16.28 40.94,-42.47 40.94,-78.57 0,-36.97 -14.09,-62.94 -42.26,-77.9 -28.17,-14.97 -69.54,-22.45 -124.12,-22.45 -17.61,0 -36.53,0.22 -56.78,0.66 -20.25,0.44 -38.29,1.54 -54.14,3.3l0 199.39z"/>
  <path class="fil6" d="M3982.69 9134.31c136.45,0 241.21,23.99 314.27,71.97 73.07,47.97 109.6,126.54 109.6,235.7 0,110.04 -36.97,189.48 -110.92,238.34 -73.94,48.86 -179.58,73.29 -316.91,73.29l-64.7 0 0 306.34 -205.99 0 0 -901.87c44.9,-8.8 92.43,-14.97 142.61,-18.49 50.18,-3.52 94.19,-5.28 132.04,-5.28zm13.21 175.62c-14.96,0 -29.71,0.44 -44.24,1.32 -14.52,0.88 -27.06,1.76 -37.63,2.64l0 264.1 64.7 0c71.31,0 125.01,-9.69 161.1,-29.05 36.09,-19.37 54.14,-55.46 54.14,-108.28 0,-25.53 -4.62,-46.66 -13.87,-63.38 -9.24,-16.73 -22.44,-30.16 -39.61,-40.28 -17.17,-10.12 -38.07,-17.16 -62.72,-21.13 -24.65,-3.96 -51.94,-5.94 -81.87,-5.94z"/>
 </g>
</svg>
